<svg width="10" height="6" viewBox="0 0 10 6" fill="none" xmlns="http://www.w3.org/2000/svg">
<path d="M0.333163 4.92493C0.332938 4.82718 0.352328 4.73037 0.390205 4.64011C0.428083 4.54985 0.483694 4.46794 0.553806 4.39915L4.47726 0.547848C4.61709 0.410389 4.80613 0.333252 5.00315 0.333252C5.20017 0.333252 5.3892 0.410389 5.52904 0.547848L9.44586 4.39258C9.58643 4.53072 9.66584 4.7185 9.66662 4.91463C9.6674 5.11076 9.58948 5.29915 9.45 5.43838C9.31053 5.57761 9.12092 5.65626 8.9229 5.65703C8.72487 5.6578 8.53465 5.58063 8.39407 5.44249L4.99983 2.11203L1.60559 5.44906C1.5009 5.55197 1.36778 5.62185 1.22303 5.6499C1.07827 5.67795 0.928375 5.6629 0.79225 5.60665C0.656125 5.5504 0.539873 5.45548 0.458167 5.33386C0.376462 5.21223 0.332964 5.06937 0.333163 4.92329L0.333163 4.92493Z" fill="#9C9C9C"/>
</svg>
